<!DOCTYPE svg PUBLIC "-//W3C//DTD SVG 1.1//EN" "http://www.w3.org/Graphics/SVG/1.1/DTD/svg11.dtd">
<!-- Uploaded to: SVG Repo, www.svgrepo.com, Transformed by: SVG Repo Mixer Tools -->
<svg width="800px" height="800px" viewBox="-102.4 -102.4 1228.80 1228.80" class="icon" version="1.1" xmlns="http://www.w3.org/2000/svg" fill="#000000">
<g id="SVGRepo_bgCarrier" stroke-width="0" transform="translate(128,128), scale(0.75)">
<rect x="-102.4" y="-102.4" width="1228.80" height="1228.80" rx="614.4" fill="#f4dbff" strokewidth="0"/>
</g>
<g id="SVGRepo_tracerCarrier" stroke-linecap="round" stroke-linejoin="round"/>
<g id="SVGRepo_iconCarrier">
<path d="M512 128C300.8 128 128 300.8 128 512s172.8 384 384 384 384-172.8 384-384S723.2 128 512 128z m0 85.333333c66.133333 0 128 23.466667 179.2 59.733334L273.066667 691.2C236.8 640 213.333333 578.133333 213.333333 512c0-164.266667 134.4-298.666667 298.666667-298.666667z m0 597.333334c-66.133333 0-128-23.466667-179.2-59.733334l418.133333-418.133333C787.2 384 810.666667 445.866667 810.666667 512c0 164.266667-134.4 298.666667-298.666667 298.666667z" fill="#955aac"/>
</g>
</svg>